<svg width="186" height="180" viewBox="0 0 186 180" fill="none" xmlns="http://www.w3.org/2000/svg">
<circle cx="95.5" cy="90.5" r="70.5" fill="url(#paint0_linear_1939_21186)"/>
<circle cx="178.467" cy="27.5" r="7.5" fill="#FED676"/>
<circle cx="20.0332" cy="10" r="10" fill="#FED676"/>
<circle cx="10.0332" cy="133" r="5" fill="#FED676"/>
<circle cx="165.533" cy="160.5" r="2.5" fill="#FED676"/>
<path fill-rule="evenodd" clip-rule="evenodd" d="M109.682 81.6053H120.084C120.084 73.2538 115.08 68.375 106.601 68.375H84.3996C75.9211 68.375 70.917 73.2538 70.917 81.4987V99.5013C70.917 107.746 75.9211 112.625 84.3996 112.625H106.601C115.08 112.625 120.084 107.746 120.084 99.5013V98.7343H109.682C104.855 98.7343 100.941 94.9189 100.941 90.2124C100.941 85.5059 104.855 81.6905 109.682 81.6905V81.6053ZM109.682 85.2697H118.248C119.262 85.2697 120.084 86.0709 120.084 87.0593V93.2803C120.072 94.2638 119.257 95.0584 118.248 95.0699H109.879C107.435 95.1019 105.298 93.4706 104.744 91.1498C104.466 89.7091 104.856 88.2225 105.808 87.0884C106.761 85.9542 108.179 85.2885 109.682 85.2697ZM110.054 91.8102H110.862C111.9 91.8102 112.741 90.9899 112.741 89.978C112.741 88.9661 111.9 88.1458 110.862 88.1458H110.054C109.557 88.1401 109.079 88.3284 108.726 88.6686C108.373 89.0089 108.174 89.4727 108.174 89.9567C108.174 90.9721 109.012 91.7986 110.054 91.8102ZM82.564 81.6053H96.44C97.4778 81.6053 98.3192 80.785 98.3192 79.773C98.3192 78.7611 97.4778 77.9408 96.44 77.9408H82.564C81.5346 77.9408 80.6967 78.7482 80.6848 79.7517C80.6847 80.7671 81.5226 81.5936 82.564 81.6053Z" fill="#35383F"/>
<circle cx="106.533" cy="4.5" r="2.5" fill="#FED676"/>
<circle cx="62.5332" cy="176.5" r="3.5" fill="#FED676"/>
<circle cx="122.033" cy="171" r="1" fill="#FED676"/>
<circle cx="170.533" cy="110.5" r="2.5" fill="#FED676"/>
<circle cx="1.0332" cy="75" r="1" fill="#FED676"/>
<defs>
<linearGradient id="paint0_linear_1939_21186" x1="166" y1="161" x2="-1.77734" y2="112.355" gradientUnits="userSpaceOnUse">
<stop stop-color="#FEBB1B"/>
<stop offset="1" stop-color="#FFC740"/>
</linearGradient>
</defs>
</svg>
