<svg width="10" height="16" viewBox="0 0 10 16" fill="none" xmlns="http://www.w3.org/2000/svg">
<path fill-rule="evenodd" clip-rule="evenodd" d="M9.25589 0.242789C9.58048 0.56431 9.58271 1.08555 9.25366 1.40707L4.38822 6.17172L4.30227 6.24513C3.97341 6.48973 3.50333 6.46416 3.20477 6.16843C3.04303 6.00822 2.96049 5.79753 2.96049 5.58794C2.96049 5.37725 3.04303 5.16546 3.207 5.00525L8.07244 0.239497L8.15839 0.16609C8.48726 -0.0785104 8.95733 -0.0529439 9.25589 0.242789ZM9.32914 14.6783C9.58021 15.001 9.55354 15.4636 9.256 15.7583C8.9303 16.0798 8.40048 16.0809 8.07255 15.7594L0.746507 8.5828L0.671314 8.49872C0.55732 8.35233 0.5 8.1766 0.5 8.00011C0.5 7.79052 0.582541 7.57983 0.744276 7.41962C1.06998 7.097 1.5998 7.0959 1.92773 7.41742L9.25377 14.594L9.32914 14.6783Z" fill="#212121"/>
</svg>
