<svg width="21" height="20" viewBox="0 0 21 20" fill="none" xmlns="http://www.w3.org/2000/svg">
<path fill-rule="evenodd" clip-rule="evenodd" d="M1.87038 3.44798C1.35536 4.15562 1.39136 5.06216 1.94438 6.27653C2.11538 6.65334 1.94938 7.09711 1.57237 7.26903C1.19436 7.43994 0.751348 7.27502 0.579343 6.89722C-0.207677 5.1711 -0.192676 3.72984 0.623344 2.61741C0.927352 2.10867 2.8384 -0.103195 4.47944 0.00375015C4.99546 0.0467281 5.46747 0.286605 5.91048 0.718384C6.38249 1.17915 8.36454 3.58991 8.52355 4.35252C8.6944 5.17238 8.32618 5.81265 8.05724 6.28031L8.05653 6.28153C7.79153 6.7423 7.69952 6.9392 7.79053 7.18807C8.45954 8.82423 9.49357 10.1615 10.8546 11.133C11.1916 11.3749 11.2686 11.8427 11.0276 12.1795C10.8816 12.3834 10.6516 12.4933 10.4176 12.4933C10.2656 12.4933 10.1136 12.4474 9.98158 12.3534C8.38754 11.213 7.17951 9.6568 6.39049 7.72679C6.04348 6.77228 6.45549 6.05665 6.7565 5.53392C6.98251 5.14212 7.10751 4.90824 7.05451 4.65836C6.9145 4.29755 5.45247 2.36754 4.86245 1.79283C4.68045 1.61392 4.50944 1.50898 4.38244 1.49898C3.66642 1.48199 2.20238 2.89727 1.87038 3.44798ZM15.6658 11.0193C16.4318 11.1782 18.8409 13.1592 19.3019 13.6299C19.7359 14.0737 19.9759 14.5465 20.0169 15.0332C20.0819 16.8753 17.6149 18.8003 17.3319 18.9622C16.7938 19.35 16.1628 19.5459 15.4528 19.5459C14.7468 19.5459 13.9628 19.352 13.1137 18.9562C9.84867 17.6009 4.91054 13.2062 2.13247 9.17323C1.89746 8.8324 1.98346 8.36564 2.32447 8.13076C2.66648 7.89888 3.13349 7.98284 3.3675 8.32366C5.96257 12.0907 10.7027 16.3316 13.7188 17.5849C14.9388 18.1516 15.8468 18.1866 16.5228 17.7019C17.0499 17.383 18.5469 15.8958 18.5199 15.1222C18.5109 15.0312 18.4069 14.8603 18.2299 14.6794C17.6539 14.0897 15.7208 12.6275 15.3168 12.4755C14.9978 12.4076 14.6658 12.6015 14.1598 12.9203L13.9038 13.0792C13.5488 13.2921 13.0877 13.1792 12.8737 12.8234C12.6607 12.4695 12.7747 12.0088 13.1297 11.7949L13.3608 11.652C13.9208 11.2991 14.6938 10.8174 15.6658 11.0193Z" fill="#212121"/>
</svg>
