<svg width="20" height="20" viewBox="0 0 20 20" fill="none" xmlns="http://www.w3.org/2000/svg">
<path fill-rule="evenodd" clip-rule="evenodd" d="M19.2442 9.578C19.6612 9.578 20.0002 9.239 20.0002 8.822V6.253C20.0002 2.392 17.5902 0 13.7532 0H6.25324C2.39224 0 0.000244141 2.392 0.000244141 6.256V13.756C0.000244141 17.608 2.39224 20 6.25324 20H13.7562C17.6082 20 20.0002 17.608 19.9972 13.753C19.9972 13.331 19.6542 12.988 19.2322 12.988C18.8092 12.988 18.4672 13.331 18.4672 13.753C18.4672 16.787 16.7962 18.467 13.7532 18.467H6.25324C3.21024 18.467 1.53024 16.787 1.53024 13.753V6.253C1.53024 3.21 3.21024 1.53 6.25624 1.53H13.7562C16.8002 1.53 18.4702 3.2 18.4702 6.253V8.795V8.797C18.4712 9.219 18.8132 9.56 19.2352 9.56V9.578H19.2442ZM7.81504 11.1454L7.13104 11.8294C6.82604 12.1194 6.80904 12.6004 7.09304 12.9114L7.11504 12.9274C7.40704 13.2194 7.87704 13.2274 8.17804 12.9454L8.85904 12.2644C9.16804 11.9764 9.18504 11.4924 8.89704 11.1824C8.60804 10.8744 8.12404 10.8564 7.81504 11.1454ZM13.1109 13.1402C12.8169 13.4332 12.3419 13.4392 12.0409 13.1522L12.0029 13.1152L7.22293 8.33618C6.93093 8.02618 6.92493 7.54418 7.20993 7.22818C7.50193 6.92918 7.97993 6.92318 8.27893 7.21518C8.28193 7.21718 8.28393 7.21918 8.28693 7.22218L10.1519 9.08818L11.8489 7.39018C12.1539 7.09918 12.6349 7.10218 12.9369 7.39718C12.9909 7.45118 13.0369 7.51218 13.0719 7.58018C13.2449 7.88118 13.1949 8.25918 12.9499 8.50518L11.2599 10.1942L13.0979 12.0332C13.4079 12.3262 13.4199 12.8152 13.1259 13.1242C13.1237 13.1276 13.1207 13.1304 13.1177 13.1332C13.1154 13.1354 13.1131 13.1376 13.1109 13.1402Z" fill="#212121"/>
</svg>
