<svg width="24" height="24" viewBox="0 0 24 24" fill="none" xmlns="http://www.w3.org/2000/svg">
<g id="Iconly/Broken/Filter">
<g id="Filter">
<path id="Filter_2" fill-rule="evenodd" clip-rule="evenodd" d="M3.00034 6.52797C3.00034 8.47287 4.60301 10.0559 6.57451 10.0559C8.546 10.0559 10.1487 8.47287 10.1487 6.52797C10.1487 4.58196 8.546 3 6.57451 3C6.30292 3 6.03358 3.02979 5.77205 3.09046C5.32053 3.19306 5.04 3.63874 5.14506 4.08332C5.25012 4.5279 5.69941 4.80811 6.15204 4.7011C6.28839 4.67021 6.43145 4.65477 6.57451 4.65477C7.62172 4.65477 8.47224 5.49429 8.47224 6.52797C8.47224 7.56054 7.62172 8.40117 6.57451 8.40117C5.52729 8.40117 4.67678 7.56054 4.67678 6.52797C4.67678 6.42206 4.68572 6.31726 4.70248 6.21687C4.7796 5.76567 4.47002 5.33984 4.01402 5.26372C3.55244 5.19202 3.12551 5.49319 3.04951 5.94439C3.0171 6.13413 3.00034 6.3294 3.00034 6.52797ZM14.2893 7.35502H21.1616C21.6243 7.35502 21.9998 6.98435 21.9998 6.52764C21.9998 6.07092 21.6243 5.70025 21.1616 5.70025H14.2893C13.8266 5.70025 13.451 6.07092 13.451 6.52764C13.451 6.98435 13.8266 7.35502 14.2893 7.35502ZM10.7116 18.3492H3.83822C3.37552 18.3492 3 17.9785 3 17.5218C3 17.0651 3.37552 16.6944 3.83822 16.6944H10.7116C11.1743 16.6944 11.5498 17.0651 11.5498 17.5218C11.5498 17.9785 11.1743 18.3492 10.7116 18.3492ZM15 17.528C15 19.4729 16.6027 21.0559 18.5742 21.0559C20.5445 21.0559 22.1483 19.4729 22.1483 17.528C22.1483 17.3294 22.1316 17.1341 22.0992 16.9444C22.0232 16.4932 21.5895 16.1887 21.1347 16.2637C20.6787 16.3398 20.3691 16.7657 20.4462 17.2169C20.463 17.3173 20.4719 17.4221 20.4719 17.528C20.4719 18.5605 19.6203 19.4012 18.5742 19.4012C17.527 19.4012 16.6764 18.5605 16.6764 17.528C16.6764 16.3531 17.8388 15.4385 19.0011 15.7011C19.4515 15.8037 19.9008 15.5224 20.0047 15.0778C20.1076 14.6332 19.8237 14.1886 19.3722 14.0883C19.1106 14.0298 18.8424 14 18.5742 14C16.6027 14 15 15.582 15 17.528Z" fill="#212121"/>
</g>
</g>
</svg>
