<svg width="24" height="25" viewBox="0 0 24 25" fill="none" xmlns="http://www.w3.org/2000/svg">
<g clip-path="url(#clip0_1355_14675)">
<path d="M23.5078 12.4744C23.5078 11.4912 23.4295 10.7736 23.2598 10.0295H12.2295V14.4675H18.7041C18.5736 15.5704 17.8687 17.2314 16.3022 18.3475L16.2802 18.496L19.7678 21.2462L20.0095 21.2708C22.2285 19.1846 23.5078 16.1152 23.5078 12.4744Z" fill="#4285F4"/>
<path d="M12.2296 24.1676C15.4016 24.1676 18.0645 23.1045 20.0095 21.2709L16.3023 18.3476C15.3102 19.0518 13.9787 19.5434 12.2296 19.5434C9.1228 19.5434 6.48598 17.4574 5.54603 14.574L5.40825 14.5859L1.7818 17.4427L1.73438 17.5769C3.6663 21.4834 7.63462 24.1676 12.2296 24.1676Z" fill="#34A853"/>
<path d="M5.54621 14.574C5.2982 13.83 5.15466 13.0326 5.15466 12.2089C5.15466 11.385 5.2982 10.5878 5.53316 9.84366L5.52659 9.68519L1.8547 6.78247L1.73457 6.84064C0.938328 8.46174 0.481445 10.2822 0.481445 12.2089C0.481445 14.1355 0.938328 15.9559 1.73457 17.577L5.54621 14.574Z" fill="#FBBC05"/>
<path d="M12.2295 4.87403C14.4356 4.87403 15.9237 5.84401 16.7722 6.65461L20.0878 3.35928C18.0515 1.4326 15.4015 0.25 12.2295 0.25C7.63462 0.25 3.6663 2.93406 1.73438 6.84056L5.53297 9.84359C6.48597 6.9602 9.12279 4.87403 12.2295 4.87403Z" fill="#EB4335"/>
</g>
<defs>
<clipPath id="clip0_1355_14675">
<rect width="23.04" height="24" fill="white" transform="translate(0.480469 0.25)"/>
</clipPath>
</defs>
</svg>
