<svg width="24" height="24" viewBox="0 0 24 24" fill="none" xmlns="http://www.w3.org/2000/svg">
<g id="Iconly/Broken/Image 3">
<g id="Image 2">
<path id="Image 2_2" fill-rule="evenodd" clip-rule="evenodd" d="M7.641 22H16.358C19.732 22 22 19.632 22 16.107L21.999 14.692C21.999 14.48 21.903 14.28 21.737 14.147C21.5178 13.9723 21.2928 13.777 21.0619 13.5768L21.053 13.569L21.0462 13.5631C19.8113 12.4961 18.2764 11.1698 16.348 11.619C14.9504 11.9434 14.2335 13.0013 13.6013 13.9341L13.598 13.939L13.5967 13.9409C13.1772 14.5612 12.7814 15.1463 12.229 15.487C11.686 15.825 11.04 15.584 10.116 15.18L9.959 15.11C8.273 14.376 6.89 14.587 5.729 15.757C5.458 16.03 5.46 16.473 5.733 16.744C6.006 17.017 6.448 17.013 6.719 16.74C7.466 15.987 8.244 15.885 9.402 16.391L9.556 16.458L9.55753 16.4587C10.4874 16.8646 11.7587 17.4196 12.963 16.674C13.77 16.174 14.27 15.436 14.753 14.722L14.7534 14.7215C15.3132 13.8947 15.7972 13.18 16.664 12.979C17.9043 12.6922 19.0388 13.6729 20.1382 14.6234L20.14 14.625C20.1561 14.639 20.1723 14.6529 20.1883 14.6669C20.3288 14.7887 20.4676 14.9089 20.604 15.022V16.107C20.604 18.84 18.937 20.604 16.358 20.604H7.641C5.062 20.604 3.395 18.84 3.395 16.107V7.893C3.395 5.16 5.062 3.396 7.641 3.396H16.359C18.938 3.396 20.604 5.16 20.604 7.893V10.263C20.604 10.648 20.917 10.961 21.302 10.961C21.687 10.961 22 10.648 22 10.263V7.893C22 4.368 19.733 2 16.359 2H7.641C4.267 2 2 4.368 2 7.893V16.107C2 19.632 4.267 22 7.641 22ZM8.85384 11.3391C7.44284 11.3391 6.29584 10.1911 6.29584 8.7801C6.29584 7.3701 7.44284 6.2221 8.85384 6.2221C10.2648 6.2221 11.4118 7.3701 11.4118 8.7801C11.4118 10.1911 10.2648 11.3391 8.85384 11.3391ZM8.85384 7.6181C8.21284 7.6181 7.69084 8.1391 7.69084 8.7801C7.69084 9.4221 8.21284 9.9431 8.85384 9.9431C9.49584 9.9431 10.0168 9.4221 10.0168 8.7801C10.0168 8.1391 9.49584 7.6181 8.85384 7.6181Z" fill="#212121"/>
</g>
</g>
</svg>
