<svg width="237" height="201" viewBox="0 0 237 201" fill="none" xmlns="http://www.w3.org/2000/svg">
<g clip-path="url(#clip0_929_19842)">
<path d="M193.018 96.7772C193.018 99.5876 192.9 102.369 192.663 105.123C192.477 107.272 192.224 109.402 191.902 111.513C191.56 113.747 191.141 115.955 190.645 118.136V118.139C190.321 119.574 189.965 120.998 189.577 122.41C188.452 126.514 187.052 130.539 185.388 134.456C185.026 135.308 184.652 136.154 184.267 136.994C182.808 140.177 181.176 143.277 179.376 146.28C174.328 154.713 168.028 162.329 160.69 168.866C159.896 169.572 159.091 170.267 158.275 170.95C140.95 185.425 119.083 193.339 96.5089 193.305C43.2078 193.305 0 150.088 0 96.7772C0 43.466 43.2078 0.249875 96.5089 0.249875C118.306 0.2155 139.467 7.59498 156.518 21.1767C157.317 21.8102 158.106 22.4579 158.885 23.1198C162.687 26.3449 166.236 29.8577 169.499 33.6272H169.501C184.7 51.1506 193.052 73.579 193.018 96.7772Z" fill="#F2F2F2"/>
<path d="M28.4892 113.451C19.2956 107.978 12.3566 97.7503 13.2574 87.0876C21.6626 95.1338 32.6424 99.9469 44.2541 100.676C48.7333 100.94 53.7428 100.768 57.04 103.812C59.0916 105.706 60.0466 108.558 60.2033 111.346C60.3599 114.134 59.8015 116.907 59.2459 119.644L59.4371 120.314C48.7385 120.354 37.6828 118.924 28.4892 113.451Z" fill="#E6E6E6"/>
<path d="M13.4819 87.0763C17.1655 95.1308 23.2929 101.82 30.9938 106.193C32.6493 107.12 34.4093 107.916 36.2797 108.285C38.1055 108.631 39.9907 108.482 41.7393 107.852C43.3815 107.299 44.9972 106.542 46.7454 106.397C48.5881 106.244 50.294 106.955 51.6344 108.2C53.2743 109.724 54.269 111.746 55.173 113.758C56.1768 115.991 57.184 118.327 59.1085 119.933C59.3416 120.128 59.0261 120.478 58.7933 120.284C55.445 117.489 54.8985 112.81 52.2221 109.519C50.9732 107.983 49.2541 106.815 47.2118 106.846C45.4259 106.873 43.7592 107.652 42.1013 108.227C40.3605 108.831 38.6166 109.115 36.7787 108.849C34.8987 108.577 33.1038 107.848 31.4319 106.968C27.6554 104.943 24.2208 102.337 21.2537 99.2448C17.8479 95.7348 15.0674 91.6679 13.0327 87.2201C12.9069 86.9447 13.3569 86.8027 13.4819 87.0763H13.4819Z" fill="white"/>
<path d="M28.4307 104.931C27.5217 106.123 26.2185 106.954 24.7537 107.274C23.2889 107.595 21.758 107.384 20.4343 106.679C20.1669 106.536 20.3773 106.114 20.645 106.257C21.8764 106.915 23.3024 107.112 24.6658 106.811C26.0292 106.51 27.2401 105.731 28.08 104.615C28.2628 104.373 28.6124 104.69 28.4307 104.931L28.4307 104.931Z" fill="white"/>
<path d="M40.9446 108.243C40.5619 105.201 39.0469 102.416 36.7016 100.441C36.4691 100.246 36.7846 99.8953 37.0168 100.09C39.4536 102.149 41.0243 105.052 41.4155 108.218C41.4526 108.52 40.9814 108.543 40.9446 108.243V108.243Z" fill="white"/>
<path d="M18.433 95.5134C18.8809 95.1253 19.2254 94.6319 19.4356 94.0777C19.6457 93.5235 19.7149 92.9258 19.6369 92.3382C19.596 92.037 20.0673 92.0138 20.1079 92.313C20.191 92.9626 20.1138 93.6227 19.883 94.2355C19.6521 94.8483 19.2748 95.3953 18.7838 95.8287C18.7409 95.8734 18.6826 95.9001 18.6208 95.9034C18.5589 95.9068 18.4981 95.8864 18.4508 95.8465C18.4045 95.8045 18.3767 95.746 18.3734 95.6836C18.3701 95.6213 18.3915 95.5601 18.433 95.5135V95.5134Z" fill="white"/>
<path d="M43.017 66.4304C43.0479 66.6178 43.0788 66.8051 43.1132 66.9942C43.5414 69.5107 44.1732 71.9882 45.0024 74.4023C45.0636 74.59 45.1284 74.7793 45.1948 74.9648C47.2546 80.7596 50.3723 86.1216 54.3892 90.7782C55.9893 92.6297 57.7279 94.3567 59.59 95.9444C62.1618 98.1368 65.1246 100.309 66.7735 103.14C66.9488 103.434 67.1058 103.738 67.2436 104.05L60.2405 120.029C60.2064 120.057 60.1758 120.087 60.1416 120.116L59.8912 120.766C59.7894 120.691 59.6855 120.611 59.5837 120.536C59.5245 120.493 59.4669 120.446 59.4077 120.402C59.3687 120.372 59.3298 120.342 59.2929 120.317C59.2799 120.307 59.2669 120.297 59.2576 120.289C59.2207 120.264 59.189 120.237 59.1558 120.214C58.5737 119.767 57.9937 119.316 57.4158 118.86C57.4122 118.858 57.4122 118.858 57.4101 118.853C53.0158 115.366 48.8741 111.481 45.4534 107.091C45.3506 106.959 45.244 106.826 45.1443 106.686C43.6134 104.699 42.2475 102.59 41.0602 100.38C40.4139 99.1679 39.8294 97.9237 39.309 96.6525C37.9704 93.3651 37.1572 89.8877 36.8992 86.3476C36.3857 79.2903 38.1346 72.1474 42.6668 66.8331C42.7828 66.6972 42.8974 66.5647 43.017 66.4304Z" fill="#E6E6E6"/>
<path d="M43.2035 66.5552C41.2962 75.2045 42.1622 84.2351 45.6785 92.3641C46.4424 94.1011 47.3684 95.7966 48.6395 97.2177C49.8891 98.5935 51.4843 99.6094 53.2592 100.16C54.9038 100.707 56.6494 101.075 58.1325 102.012C59.6958 103 60.6299 104.595 60.9504 106.396C61.3425 108.601 60.9194 110.814 60.4304 112.965C59.8875 115.352 59.2858 117.824 59.8556 120.265C59.9246 120.561 59.4617 120.651 59.3928 120.355C58.4014 116.108 60.7819 112.042 60.6259 107.803C60.5531 105.825 59.8838 103.857 58.2347 102.652C56.7925 101.598 54.9928 101.216 53.3228 100.677C51.5692 100.111 50.006 99.2873 48.6986 97.9684C47.3611 96.6193 46.3668 94.9564 45.5619 93.2466C43.7654 89.3558 42.5918 85.2066 42.084 80.9512C41.4775 76.0976 41.7055 71.1761 42.7583 66.3995C42.8236 66.1039 43.2683 66.2615 43.2035 66.5552Z" fill="white"/>
<path d="M44.3925 89.8133C42.9488 90.2182 41.4082 90.0967 40.0459 89.4703C38.6835 88.844 37.5881 87.7537 36.9552 86.3942C36.8281 86.1187 37.2502 85.9082 37.3775 86.1841C37.9645 87.4512 38.985 88.4667 40.2548 89.0473C41.5246 89.6279 42.9601 89.7354 44.3022 89.3504C44.594 89.2671 44.6826 89.7304 44.3925 89.8133H44.3925Z" fill="white"/>
<path d="M52.3887 99.9926C53.9145 97.3336 54.382 94.1972 53.6981 91.2089C53.6301 90.9128 54.0931 90.8229 54.161 91.1186C54.8669 94.2297 54.3737 97.4926 52.7799 100.256C52.6278 100.519 52.2374 100.254 52.3887 99.9926Z" fill="white"/>
<path d="M42.0782 76.273C42.6695 76.2328 43.2416 76.0463 43.7431 75.7303C44.2445 75.4143 44.6597 74.9787 44.9512 74.4626C45.0999 74.1975 45.4901 74.4627 45.3423 74.7261C45.0176 75.2948 44.5586 75.7753 44.0053 76.1256C43.452 76.476 42.8214 76.6855 42.1685 76.7359C42.1073 76.7458 42.0447 76.7321 41.9933 76.6975C41.9419 76.6629 41.9057 76.61 41.8919 76.5496C41.8802 76.4883 41.8932 76.4248 41.9281 76.373C41.963 76.3212 42.0169 76.2853 42.0782 76.273V76.273Z" fill="white"/>
<path d="M66.8523 22.6222L78.6646 160.926L55.04 162.702V24.3818C57.8551 22.5187 61.8961 22.2272 66.8523 22.6222Z" fill="#CCCCCC"/>
<path d="M125.16 22.6222L113.348 160.926L136.972 162.702V24.3818C134.157 22.5187 130.116 22.2272 125.16 22.6222Z" fill="#CCCCCC"/>
<path d="M133.435 168.419H58.3258C57.1215 168.417 55.9668 167.938 55.1152 167.086C54.2636 166.235 53.7846 165.08 53.7832 163.875V26.4117C53.7846 25.2071 54.2636 24.0522 55.1152 23.2004C55.9668 22.3487 57.1215 21.8695 58.3258 21.8682H133.435C134.639 21.8695 135.794 22.3487 136.645 23.2004C137.497 24.0522 137.976 25.2071 137.977 26.4117V163.875C137.976 165.08 137.497 166.235 136.645 167.086C135.794 167.938 134.639 168.417 133.435 168.419ZM58.3258 23.3764C57.5213 23.3773 56.7499 23.6974 56.181 24.2664C55.6121 24.8354 55.292 25.6069 55.2912 26.4117V163.875C55.292 164.68 55.6121 165.451 56.181 166.02C56.7499 166.59 57.5212 166.91 58.3258 166.911H133.435C134.239 166.91 135.01 166.59 135.579 166.02C136.148 165.451 136.468 164.68 136.469 163.875V26.4117C136.468 25.6069 136.148 24.8354 135.579 24.2664C135.01 23.6974 134.239 23.3773 133.435 23.3764L58.3258 23.3764Z" fill="#CCCCCC"/>
<path d="M137.223 44.7432H54.5371V46.2514H137.223V44.7432Z" fill="#CCCCCC"/>
<path d="M137.223 69.8804H54.5371V71.3886H137.223V69.8804Z" fill="#CCCCCC"/>
<path d="M81.3705 22.6223H79.8623V91.2472H81.3705V22.6223Z" fill="#CCCCCC"/>
<path d="M111.9 22.6223H110.392V91.2472H111.9V22.6223Z" fill="#CCCCCC"/>
<path d="M146.649 172.566H47.6266C45.8269 172.566 44.1009 171.851 42.8283 170.578C41.5557 169.306 40.8408 167.579 40.8408 165.779C40.8408 163.979 41.5557 162.253 42.8283 160.98C44.1009 159.707 45.8269 158.992 47.6266 158.992H146.649C148.448 158.992 150.174 159.707 151.447 160.98C152.72 162.253 153.435 163.979 153.435 165.779C153.435 167.579 152.72 169.306 151.447 170.578C150.174 171.851 148.448 172.566 146.649 172.566Z" fill="#CCCCCC"/>
<path d="M137.223 87.728H55.04V92.7555H137.223V87.728Z" fill="#CCCCCC"/>
<path d="M81.6036 103.728L81.4993 103.678C75.8969 100.971 68.5604 100.973 57.7105 103.686L57.5947 103.715L57.56 103.601C56.4122 99.8369 55.112 95.5736 57.5546 93.4761C57.5888 87.3211 62.9868 82.3232 69.6171 82.3232C76.246 82.3232 81.6433 87.3186 81.6795 93.4719C85.313 96.2505 83.5813 100.357 81.6623 103.628L81.6036 103.728Z" fill="#2F2E41"/>
<path d="M116.039 90.5485C115.938 91.0472 115.73 91.5179 115.428 91.9273C115.126 92.3367 114.738 92.6749 114.291 92.9181C113.844 93.1613 113.349 93.3035 112.842 93.3348C112.334 93.3661 111.826 93.2856 111.352 93.0991L91.5536 112.999L89.7871 106.82L109.451 88.3403C109.817 87.5659 110.454 86.9526 111.242 86.6167C112.03 86.2808 112.913 86.2456 113.725 86.5178C114.537 86.79 115.221 87.3506 115.648 88.0935C116.074 88.8364 116.213 89.7099 116.039 90.5485L116.039 90.5485Z" fill="#FFB6B6"/>
<path d="M67.1061 109.706C67.1061 109.706 65.3098 113.778 69.7421 116.288C74.1744 118.799 89.6653 115.33 92.1789 114.846C94.6925 114.362 104.08 100.31 104.08 100.31L102.753 93.4182L90.3023 104.228L67.1061 109.706Z" fill="#FEBB1B"/>
<path d="M63.837 132.221L64.0883 136.997C64.0883 136.997 63.3465 141.228 63.9566 142.141C64.5621 143.049 81.0845 143.164 81.0845 143.164C81.0845 143.164 82.1762 137.278 83.1166 132.125L63.837 132.221Z" fill="#FFB6B6"/>
<path d="M111.34 195.371L114.795 194.673L113.806 180.719L108.708 181.749L111.34 195.371Z" fill="#FFB6B6"/>
<path d="M116.289 177.211L119.5 175.767L115.334 162.415L110.595 164.547L116.289 177.211Z" fill="#FFB6B6"/>
<path d="M119.085 169.688L113.039 173.112L98.1275 149.146C87.6594 156.2 77.423 159.578 67.1037 161.38C63.6148 162.002 60.0577 161.687 59.3879 158.135C59.3566 157.969 59.3316 157.802 59.313 157.634C58.901 153.755 63.7259 148.782 64.3392 144.036L77.5439 143.243L79.1722 145.331L94.4431 135.941C97.5141 134.052 101.553 135.074 103.465 138.222C103.566 138.388 103.659 138.559 103.746 138.733L119.085 169.688Z" fill="#2F2E41"/>
<path d="M115.385 185.81L108.466 186.454L95.9217 160.793C83.4822 162.933 71.7467 163.618 61.596 161.03C58.1592 160.166 56.0584 156.616 56.9038 153.102C56.9433 152.938 56.989 152.775 57.0408 152.615C58.2557 148.907 61.4357 146.284 63.9412 142.207L82.2419 142.485L80.1978 149.539L97.9757 147.238C101.551 146.775 104.816 149.364 105.269 153.019C105.292 153.212 105.308 153.406 105.315 153.601L115.385 185.81Z" fill="#2F2E41"/>
<path d="M70.9819 100.08C75.086 100.08 78.413 96.752 78.413 92.6471C78.413 88.5423 75.086 85.2146 70.9819 85.2146C66.8778 85.2146 63.5508 88.5423 63.5508 92.6471C63.5508 96.752 66.8778 100.08 70.9819 100.08Z" fill="#FFB6B6"/>
<path d="M66.6257 102.763L73.4394 103.565C73.7267 103.599 73.9964 103.721 74.2107 103.915C74.4251 104.11 74.5735 104.366 74.6353 104.649L75.7188 109.608L82.4736 117.564C82.4736 117.564 84.8992 122.113 83.9896 127.269C83.08 132.424 82.6803 136.255 82.6803 136.255C82.6803 136.255 64.5607 143.05 63.9543 142.14C63.3479 141.23 63.1511 137.098 63.1511 137.098L60.7256 110.108C60.7256 110.108 63.4544 105.559 64.9704 105.559C65.9488 105.526 65.8232 103.324 66.6257 102.763Z" fill="#FEBB1B"/>
<path d="M82.8652 137.914C83.8208 137.914 84.5956 136.984 84.5956 135.837C84.5956 134.691 83.8208 133.761 82.8652 133.761C81.9095 133.761 81.1348 134.691 81.1348 135.837C81.1348 136.984 81.9095 137.914 82.8652 137.914Z" fill="#FEBB1B"/>
<path d="M109.627 191.778L114.893 189.139L115.886 191.455L122.545 192.801C122.874 192.867 123.173 193.037 123.398 193.286C123.624 193.534 123.764 193.848 123.799 194.182C123.833 194.516 123.76 194.852 123.59 195.142C123.42 195.431 123.162 195.658 122.853 195.79L116.419 198.549L114.328 196.734L114.877 199.21L112.451 200.25L109.627 191.778Z" fill="#2F2E41"/>
<path d="M114.781 176.1L120 173.368L121.033 175.667L127.715 176.896C128.045 176.956 128.347 177.121 128.577 177.365C128.807 177.61 128.953 177.921 128.993 178.255C129.033 178.588 128.966 178.925 128.801 179.217C128.636 179.51 128.382 179.741 128.076 179.879L121.691 182.75L119.569 180.972L120.161 183.439L117.754 184.521L114.781 176.1Z" fill="#2F2E41"/>
<path d="M66.7362 90.3159C64.773 90.3191 62.8569 89.7144 61.2509 88.585L61.1973 88.5474V88.482C61.1994 86.5826 61.9548 84.7617 63.2976 83.4186C64.6404 82.0755 66.461 81.32 68.36 81.3179H71.3759C73.275 81.32 75.0956 82.0755 76.4384 83.4186C77.7812 84.7617 78.5366 86.5826 78.5387 88.482C78.5367 88.9167 78.3651 89.3335 78.0604 89.6436C77.7557 89.9536 77.3421 90.1324 76.9075 90.142L66.9057 90.3144C66.8493 90.3154 66.7926 90.3159 66.7362 90.3159Z" fill="#2F2E41"/>
<path d="M79.0423 87.1062C80.0041 86.5508 80.1649 85.0284 79.4015 83.7058C78.638 82.3832 77.2394 81.7612 76.2776 82.3166C75.3158 82.872 75.155 84.3944 75.9185 85.717C76.6819 87.0396 78.0805 87.6616 79.0423 87.1062Z" fill="#2F2E41"/>
<path d="M64.0019 85.6308C65.0816 84.5508 65.3203 83.0387 64.535 82.2532C63.7498 81.4678 62.2379 81.7066 61.1582 82.7865C60.0784 83.8665 59.8397 85.3786 60.625 86.1641C61.4102 86.9495 62.9221 86.7107 64.0019 85.6308Z" fill="#2F2E41"/>
<path d="M129.769 153.588H122.352C122.184 153.587 122.019 153.623 121.867 153.694C121.715 153.764 121.581 153.866 121.472 153.994C121.199 153.944 120.917 153.959 120.651 154.039C120.384 154.119 120.14 154.26 119.939 154.453C119.738 154.645 119.586 154.882 119.494 155.145C119.402 155.407 119.374 155.688 119.412 155.964C119.45 156.239 119.552 156.502 119.711 156.73C119.87 156.958 120.081 157.146 120.326 157.277C120.572 157.408 120.845 157.479 121.123 157.484C121.401 157.489 121.676 157.428 121.926 157.306L122.541 159.305C122.614 159.542 122.761 159.749 122.961 159.897C123.16 160.044 123.401 160.123 123.649 160.123H128.472C128.72 160.123 128.961 160.044 129.16 159.897C129.36 159.749 129.506 159.542 129.579 159.305L130.877 155.088C130.93 154.914 130.942 154.731 130.912 154.552C130.881 154.373 130.809 154.204 130.701 154.058C130.594 153.912 130.453 153.794 130.291 153.712C130.129 153.63 129.95 153.588 129.769 153.588ZM121.16 156.981C120.826 156.981 120.507 156.849 120.271 156.613C120.035 156.377 119.903 156.058 119.903 155.724C119.903 155.391 120.035 155.071 120.271 154.836C120.507 154.6 120.826 154.467 121.16 154.467C121.182 154.467 121.204 154.473 121.227 154.474C121.177 154.677 121.183 154.889 121.244 155.088L121.775 156.813C121.588 156.922 121.376 156.98 121.16 156.981Z" fill="#3F3D56"/>
<path d="M96.6478 148.131C96.1413 148.178 95.6307 148.113 95.1519 147.941C94.6732 147.769 94.2379 147.495 93.8768 147.136C93.5157 146.778 93.2375 146.345 93.0619 145.867C92.8863 145.39 92.8174 144.88 92.8603 144.373L68.1201 131.112L73.5314 127.647L96.8726 141.186C97.7194 141.314 98.4896 141.749 99.0373 142.407C99.5851 143.065 99.8723 143.902 99.8446 144.758C99.8169 145.614 99.4762 146.431 98.887 147.052C98.2978 147.674 97.5011 148.058 96.6478 148.131Z" fill="#FFB6B6"/>
<path d="M64.2592 106.743C64.2592 106.743 59.8443 106.19 58.7112 111.158C57.5781 116.125 65.3451 129.972 66.5302 132.241C67.7153 134.511 83.8674 139.474 83.8674 139.474L90.0869 136.225L76.1608 127.397L64.2592 106.743Z" fill="#FEBB1B"/>
<path d="M95.7646 86H97.2725C98.0057 86 98.7089 86.2913 99.2274 86.8099C99.7458 87.3284 100.037 88.0318 100.037 88.7651H93C93 88.0318 93.2913 87.3284 93.8097 86.8099C94.3282 86.2913 95.0314 86 95.7646 86Z" fill="#CCCCCC"/>
<path d="M47.5613 34.6293C55.812 34.6293 62.5006 27.9395 62.5006 19.6872C62.5006 11.4349 55.812 4.74512 47.5613 4.74512C39.3106 4.74512 32.6221 11.4349 32.6221 19.6872C32.6221 27.9395 39.3106 34.6293 47.5613 34.6293Z" fill="#FF6584"/>
<path d="M93.302 18.9083C89.3484 14.76 84.7566 10.9757 79.3209 8.97593C77.8067 8.41652 76.2367 8.02191 74.638 7.79892C74.6252 7.79716 74.613 7.79977 74.6002 7.79873C74.5742 7.79203 74.5478 7.78685 74.5212 7.78322C72.2853 7.49832 70.0158 7.63536 67.8304 8.18724C66.7617 8.45547 65.7191 8.81874 64.7151 9.2727C63.7075 9.76435 62.7312 10.3177 61.7918 10.9297C59.8035 12.1201 57.6142 12.937 55.3321 13.34C54.1866 13.5463 53.0264 13.6602 51.8627 13.6806C50.8529 13.7008 49.9007 13.7359 48.944 14.1008C47.922 14.4852 47.0041 15.1031 46.2633 15.9053C45.5225 16.7076 44.9795 17.6719 44.6775 18.7213C44.6543 18.8147 44.6613 18.9132 44.6976 19.0024C44.7339 19.0916 44.7976 19.167 44.8795 19.2176C45.1382 19.403 45.3905 19.6133 45.6624 19.7785C45.9043 19.8892 46.1627 19.9597 46.4273 19.9871C46.8596 20.0783 47.2924 20.1669 47.7258 20.2528C49.3224 20.5692 50.9256 20.8493 52.5355 21.0931C55.7931 21.5863 59.0682 21.9337 62.3609 22.1354C68.9572 22.535 75.5761 22.336 82.1364 21.5409C85.8234 21.0943 89.4853 20.4607 93.1081 19.6428C93.1815 19.6214 93.248 19.5814 93.3014 19.5266C93.3547 19.4719 93.393 19.4043 93.4125 19.3303C93.432 19.2564 93.4321 19.1788 93.4127 19.1048C93.3934 19.0309 93.3552 18.9632 93.302 18.9083Z" fill="#E6E6E6"/>
<path d="M48.2701 28.8988C46.7559 28.3394 45.1859 27.9448 43.5873 27.7218C43.5744 27.72 43.5622 27.7226 43.5494 27.7216C43.5234 27.7149 43.4971 27.7097 43.4704 27.7061C41.2345 27.4212 38.965 27.5582 36.7796 28.1101C35.7109 28.3783 34.6683 28.7416 33.6643 29.1956C32.6567 29.6872 31.6805 30.2406 30.7411 30.8525C28.7527 32.043 26.5635 32.8599 24.2814 33.2629C23.1359 33.4691 21.9757 33.583 20.8119 33.6034C19.8022 33.6237 18.8499 33.6588 17.8932 34.0236C16.8713 34.408 15.9533 35.026 15.2125 35.8282C14.4718 36.6304 13.9287 37.5947 13.6268 38.6441C13.6035 38.7376 13.6105 38.836 13.6468 38.9252C13.6831 39.0144 13.7468 39.0898 13.8287 39.1404C14.0875 39.3258 14.3398 39.5361 14.6117 39.7013C14.8535 39.812 15.1119 39.8825 15.3765 39.9099C15.8088 40.0012 16.2416 40.0897 16.675 40.1756C18.2716 40.492 19.8749 40.7721 21.4847 41.0159C24.7423 41.5091 28.0174 41.8566 31.3101 42.0582C37.9064 42.4578 44.5253 42.2589 51.0857 41.4637C54.7726 41.0171 58.4346 40.3836 62.0573 39.5657C62.1307 39.5442 62.1973 39.5042 62.2506 39.4494C62.3039 39.3947 62.3422 39.3271 62.3617 39.2532C62.3812 39.1793 62.3813 39.1016 62.3619 39.0276C62.3426 38.9537 62.3044 38.886 62.2512 38.8311C58.2976 34.6829 53.7059 30.8986 48.2701 28.8988Z" fill="#E6E6E6"/>
<path d="M156.004 140.29L144.515 125.195L135.45 130.321L154.659 153.136L156.004 140.29Z" fill="#3F3D56"/>
<path d="M182.467 115.751C182.722 122.077 183.702 128.353 185.387 134.456C185.025 135.308 184.652 136.154 184.266 136.995C182.808 140.177 181.175 143.277 179.375 146.28C174.328 154.713 168.027 162.329 160.689 168.866C159.895 169.573 159.09 170.267 158.274 170.95C153.622 164.535 151.111 157.456 150.119 150.172C149.993 149.247 149.89 148.311 149.812 147.381V147.376C149.621 145.116 149.56 142.847 149.629 140.579C149.631 140.398 149.636 140.215 149.644 140.031C149.732 137.608 149.95 135.18 150.28 132.774V132.772C150.317 132.495 150.355 132.219 150.398 131.942C150.518 131.112 150.654 130.283 150.802 129.458C151.665 124.703 152.87 120.016 154.406 115.434V115.432C154.449 115.299 154.492 115.168 154.54 115.037C154.705 114.539 154.874 114.047 155.047 113.554C155.058 113.515 155.071 113.478 155.087 113.441C155.311 112.797 155.54 112.159 155.774 111.525C155.836 111.35 155.902 111.174 155.97 110.998C156.233 110.291 156.502 109.59 156.776 108.899C156.862 108.677 156.95 108.456 157.038 108.238C157.106 108.069 157.171 107.901 157.241 107.735V107.732C157.641 106.744 158.046 105.776 158.455 104.826C159.604 102.157 160.785 99.6456 161.936 97.3304L161.939 97.3279C166.716 87.743 171.059 81.519 171.059 81.519L187.368 86.7979C185.422 90.2492 183.917 95.3395 183.093 101.345C182.457 106.118 182.248 110.938 182.467 115.749L182.467 115.751Z" fill="#3F3D56"/>
<path d="M155.362 114.215C155.266 113.991 155.158 113.773 155.047 113.554C154.474 112.444 153.736 111.427 152.858 110.538C152.728 110.404 152.592 110.271 152.451 110.145C150.937 108.751 149.096 107.76 147.099 107.266C145.101 106.771 143.01 106.788 141.021 107.315L141.011 107.32L140.935 107.34L140.953 107.426C141.028 107.824 141.138 108.215 141.28 108.594C141.317 108.698 141.36 108.796 141.403 108.894C141.421 108.939 141.443 108.979 141.463 109.024C141.463 109.024 141.461 109.027 141.466 109.027C141.466 109.029 141.468 109.032 141.468 109.034C141.516 109.127 141.561 109.223 141.612 109.313C141.508 109.215 141.41 109.115 141.315 109.012C141.222 108.916 141.137 108.816 141.051 108.715C140.758 108.373 140.493 108.009 140.259 107.624L140.219 107.556L140.149 107.584C139.2 107.913 138.296 108.356 137.455 108.904L137.364 108.964C136.722 109.386 135.998 109.668 135.24 109.791C134.482 109.915 133.706 109.878 132.963 109.683C131.792 109.381 130.571 109.326 129.377 109.521C128.184 109.716 127.043 110.157 126.029 110.817C125.358 111.255 124.75 111.784 124.225 112.39C124.18 112.443 124.134 112.498 124.089 112.551C123.994 112.667 123.903 112.785 123.815 112.906C122.87 114.169 122.291 115.667 122.139 117.237L122.134 117.295L122.182 117.327C123.032 117.91 123.994 118.311 125.006 118.504C124.37 118.592 123.726 118.609 123.086 118.551H123.084C122.794 118.527 122.505 118.487 122.219 118.431L122.166 118.421H122.164L122.099 118.408L122.109 118.529C122.184 120.065 122.667 121.553 123.509 122.84L123.534 122.875C123.543 122.888 123.551 122.901 123.559 122.915C123.915 123.461 124.212 124.043 124.444 124.652C125.031 126.166 125.16 127.819 124.815 129.406C124.425 131.103 124.555 132.878 125.188 134.5C125.821 136.123 126.928 137.516 128.364 138.5C129.626 139.369 131.097 139.885 132.624 139.996C132.833 140.014 133.044 140.024 133.255 140.024C134.463 140.027 135.659 139.778 136.766 139.292L136.806 139.277L136.816 139.232C137.029 138.545 137.328 137.888 137.706 137.276C137.582 137.758 137.52 138.254 137.52 138.752V138.918L137.663 138.835C137.786 138.762 137.912 138.684 138.025 138.611C138.704 138.168 139.319 137.633 139.852 137.022C140.061 136.781 140.272 136.547 140.493 136.313L140.496 136.311C140.925 135.853 141.38 135.406 141.853 134.979C142.858 134.076 143.934 133.254 145.07 132.523C146.205 131.794 147.392 131.148 148.621 130.592H148.623C148.762 130.527 148.902 130.464 149.041 130.404C149.653 130.137 150.242 129.821 150.802 129.459C150.823 129.446 150.84 129.436 150.858 129.423C153.287 127.832 155.073 125.43 155.898 122.645C156.723 119.86 156.533 116.873 155.362 114.215L155.362 114.215Z" fill="#FEBB1B"/>
<path opacity="0.15" d="M125.23 132.975C125.161 133.28 125.109 133.589 125.074 133.901C124.606 132.422 124.538 130.845 124.878 129.332C124.93 129.1 124.969 128.866 125 128.63C125.464 130.032 125.544 131.532 125.23 132.975Z" fill="black"/>
<path opacity="0.15" d="M125.421 122.071C124.676 122.174 123.921 122.178 123.175 122.081C122.98 121.713 122.811 121.331 122.671 120.939C123.501 121.499 124.437 121.884 125.421 122.071Z" fill="black"/>
<path opacity="0.15" d="M123.115 118.471C122.84 119.174 122.658 119.909 122.572 120.659C122.343 119.945 122.207 119.204 122.169 118.455L122.163 118.334L122.282 118.357C122.557 118.409 122.836 118.447 123.115 118.471Z" fill="black"/>
<path opacity="0.15" d="M126.094 110.742C127.107 110.082 128.247 109.64 129.44 109.444C130.633 109.249 131.854 109.304 133.024 109.607C133.767 109.803 134.544 109.841 135.302 109.717C136.061 109.594 136.785 109.311 137.427 108.889L137.518 108.829C138.358 108.28 139.263 107.836 140.211 107.506L140.283 107.481L140.323 107.547C140.698 108.167 141.152 108.735 141.674 109.237C141.357 108.646 141.135 108.009 141.016 107.349L140.999 107.262L141.085 107.24C142.951 106.746 144.907 106.7 146.794 107.106C148.681 107.512 150.445 108.359 151.943 109.577C153.441 110.795 154.629 112.35 155.411 114.115C156.194 115.88 156.548 117.805 156.445 119.733C156.049 118.161 155.345 116.684 154.374 115.386C153.403 114.088 152.185 112.996 150.789 112.173C149.393 111.35 147.847 110.812 146.242 110.59C144.637 110.369 143.004 110.468 141.437 110.883L141.351 110.905L141.368 110.992C141.487 111.652 141.709 112.29 142.026 112.88C141.504 112.378 141.05 111.81 140.675 111.19L140.635 111.124L140.563 111.149C139.615 111.479 138.711 111.923 137.87 112.472L137.78 112.532C137.137 112.954 136.413 113.237 135.655 113.36C134.896 113.484 134.12 113.446 133.377 113.25C131.431 112.745 129.37 112.931 127.546 113.775C125.722 114.62 124.248 116.071 123.374 117.882C122.985 117.695 122.608 117.484 122.245 117.251L122.195 117.22L122.201 117.162C122.326 115.868 122.741 114.619 123.415 113.507C124.089 112.396 125.005 111.451 126.094 110.742Z" fill="black"/>
<path d="M219.528 46.5127L219.289 46.3543L219.115 46.5806C217.773 48.2707 216.706 50.1615 215.951 52.1837C216.055 49.8541 216.463 47.548 217.163 45.3237L217.238 45.0899L217.022 44.9667C214.21 43.3741 211.214 42.1315 208.1 41.2665L207.761 41.176C205.374 40.5211 203.153 39.3704 201.241 37.799C199.329 36.2276 197.77 34.2708 196.665 32.0562C194.097 26.9736 190.04 22.7951 185.037 20.0782C180.033 17.3614 174.32 16.2354 168.659 16.8506H168.657C168.597 16.8557 168.534 16.8632 168.473 16.8707C168.37 16.8808 168.27 16.8934 168.169 16.9059C167.963 16.9336 167.762 16.9612 167.561 16.9914C167.39 17.0165 167.217 17.0442 167.046 17.0744C166.955 17.0869 166.867 17.102 166.779 17.1196C166.691 17.1347 166.601 17.1498 166.513 17.1674H166.511C164.823 17.4866 163.169 17.9621 161.569 18.5876H161.567V18.5901L161.162 18.7485C160.745 18.9194 160.331 19.1004 159.921 19.2915C159.828 19.3342 159.737 19.3794 159.644 19.4222C159.619 19.4347 159.592 19.4473 159.566 19.4624C159.303 19.5881 159.041 19.7188 158.782 19.857C158.745 19.8746 158.707 19.8948 158.669 19.9149L158.428 20.0431C157.898 20.3296 157.377 20.6338 156.865 20.9555C156.822 20.9807 156.782 21.0058 156.739 21.0335C156.694 21.0636 156.646 21.0938 156.601 21.124C156.573 21.139 156.545 21.1592 156.518 21.1768C156.44 21.2245 156.365 21.2748 156.289 21.3276C156.138 21.4256 155.988 21.5262 155.839 21.6292C155.686 21.7323 155.535 21.8404 155.384 21.9485L155.234 22.0566L155.261 22.2426C155.286 22.3959 155.309 22.5493 155.337 22.7001C155.362 22.8509 155.387 22.9992 155.415 23.1475C155.457 23.3964 155.505 23.6427 155.553 23.8815C155.585 24.0399 155.616 24.1957 155.651 24.3491C155.683 24.5075 155.719 24.6658 155.756 24.8242C155.829 25.151 155.907 25.4677 155.99 25.7794C156.03 25.9353 156.073 26.0911 156.118 26.2444C156.143 26.3374 156.169 26.4305 156.196 26.521C156.216 26.5838 156.236 26.6466 156.256 26.7095C156.262 26.7296 156.267 26.7522 156.274 26.7748C156.28 26.7961 156.286 26.8171 156.294 26.8377C156.322 26.9307 156.349 27.0212 156.377 27.1092C156.392 27.1569 156.407 27.2047 156.425 27.2499C156.46 27.358 156.498 27.4686 156.535 27.5742C156.576 27.6949 156.618 27.8155 156.661 27.9337C156.671 27.9638 156.681 27.9915 156.691 28.0217C156.699 28.0443 156.706 28.0669 156.716 28.0895C156.726 28.1147 156.737 28.1423 156.747 28.1674C156.789 28.2806 156.832 28.3962 156.877 28.5093C156.892 28.5495 156.907 28.5923 156.925 28.6325C157.332 29.6565 157.833 30.641 158.42 31.5736C157.769 31.0155 157.143 30.4239 156.54 29.7989C155.61 28.8324 154.754 27.798 153.977 26.7045C153.914 26.619 153.851 26.531 153.794 26.443C153.675 26.2746 153.56 26.1062 153.447 25.9353C153.326 25.7593 153.21 25.5758 153.097 25.3948C153.022 25.2741 152.947 25.151 152.874 25.0303C152.801 24.9147 152.733 24.8016 152.668 24.6859L152.472 24.3491H152.469V24.3516L152.193 24.6231C152.082 24.7312 151.971 24.8393 151.863 24.9473C148.485 28.3467 146.039 32.5581 144.758 37.1767L144.721 37.3149L144.683 37.4582C144.61 37.7146 144.537 37.9635 144.459 38.2173V38.2199C144.384 38.4712 144.303 38.7226 144.218 38.9689C144.14 39.2027 144.06 39.434 143.974 39.6652C143.947 39.7432 143.916 39.8211 143.884 39.899C143.831 40.0499 143.773 40.1982 143.715 40.349C143.688 40.4169 143.66 40.4872 143.632 40.5551C143.565 40.721 143.497 40.8869 143.429 41.0503C143.419 41.0755 143.406 41.1031 143.394 41.1282C143.374 41.1785 143.351 41.2288 143.331 41.2766C143.278 41.3972 143.223 41.5204 143.17 41.641C143.132 41.719 143.097 41.7994 143.062 41.8773C143.047 41.9125 143.029 41.9477 143.014 41.9829C142.921 42.184 142.826 42.3826 142.725 42.5787C142.612 42.8099 142.496 43.0412 142.373 43.2674C142.265 43.4786 142.152 43.6847 142.034 43.8908C141.83 44.2553 141.617 44.6173 141.396 44.9692C141.31 45.105 141.225 45.2407 141.137 45.3765C141.117 45.4091 141.097 45.4418 141.076 45.472C141.004 45.5901 140.928 45.7033 140.85 45.8189C140.797 45.8968 140.745 45.9747 140.692 46.0501C140.604 46.1859 140.511 46.3166 140.415 46.4448C140.39 46.485 140.363 46.5227 140.335 46.5604C140.194 46.7565 140.054 46.9475 139.91 47.1386C139.905 47.1411 139.905 47.1436 139.903 47.1461C139.898 47.1461 139.898 47.1486 139.895 47.1512C139.832 47.2341 139.77 47.3171 139.704 47.3975C139.619 47.5156 139.526 47.6313 139.433 47.7444C139.282 47.9354 139.124 48.129 138.963 48.3175C138.958 48.3226 138.955 48.3276 138.95 48.3301C138.118 49.3087 137.215 50.2261 136.251 51.0751C136.233 51.0902 136.221 51.1053 136.203 51.1178C136.068 51.236 135.932 51.3541 135.791 51.4698C135.733 51.5175 135.675 51.5653 135.618 51.613C135.522 51.6935 135.424 51.7739 135.329 51.8468C135.317 51.8584 135.305 51.8685 135.291 51.877C135.206 51.9474 135.123 52.0127 135.037 52.0781C134.934 52.161 134.831 52.239 134.725 52.3169C134.228 52.6939 133.717 53.0501 133.192 53.3852C133.114 53.438 133.032 53.4908 132.951 53.5411C132.903 53.5712 132.856 53.6014 132.81 53.6265C132.619 53.7447 132.428 53.8603 132.237 53.9709C132.046 54.084 131.85 54.1921 131.657 54.2977C131.242 54.5239 130.832 54.7602 130.433 55.0066C130.232 55.1323 130.031 55.258 129.832 55.3862C129.043 55.899 128.283 56.4478 127.553 57.0326C126.822 57.6179 126.122 58.2395 125.454 58.8953C125.371 58.9758 125.288 59.0587 125.205 59.1442C125.039 59.3076 124.879 59.4735 124.725 59.6394C124.479 59.8933 124.243 60.1547 124.009 60.4186C122.776 61.8174 121.685 63.3347 120.752 64.9484C120.283 65.7542 119.857 66.584 119.475 67.4345C119.186 68.0704 118.922 68.7215 118.683 69.3801C118.525 69.82 118.377 70.2641 118.239 70.7124C118.171 70.9361 118.105 71.1623 118.043 71.3886C117.829 72.1553 117.65 72.9295 117.505 73.7062C117.387 74.3296 117.291 74.9539 117.218 75.579C117.18 75.8932 117.15 76.2074 117.123 76.5191C117.058 77.2852 117.025 78.0521 117.023 78.8197C117.019 81.1226 117.299 83.4172 117.857 85.6515C117.98 86.1442 118.116 86.6344 118.266 87.122C118.342 87.3659 118.422 87.6072 118.502 87.8485C118.706 88.4518 118.931 89.0492 119.178 89.6408C119.327 89.9952 119.483 90.3471 119.646 90.6965C120.684 92.9178 122.009 94.9934 123.587 96.8703C123.846 97.1795 124.113 97.4836 124.388 97.7828C124.391 97.7828 124.388 97.7853 124.388 97.7853C125.072 98.5313 125.796 99.2396 126.557 99.9069H126.56C126.864 100.176 127.173 100.436 127.487 100.689C127.49 100.686 127.49 100.689 127.49 100.689C127.806 100.945 128.126 101.191 128.452 101.43C128.616 101.548 128.782 101.666 128.95 101.785C129.279 102.018 129.615 102.244 129.958 102.461H129.96C130.302 102.682 130.649 102.893 131.001 103.094C131.707 103.499 132.431 103.879 133.175 104.223L133.3 104.281L133.429 104.223C134.621 103.686 135.851 103.235 137.108 102.873C137.384 102.793 137.663 102.72 137.94 102.649C138.639 102.476 139.342 102.33 140.051 102.212C139.361 102.558 138.694 102.951 138.056 103.386C137.56 103.72 137.073 104.085 136.583 104.487C136.419 104.62 136.256 104.758 136.093 104.899L135.686 105.251L136.196 105.419C136.382 105.48 136.568 105.54 136.754 105.595C137.007 105.676 137.259 105.749 137.505 105.817C138.043 105.967 138.584 106.101 139.129 106.216C139.262 106.244 139.393 106.272 139.526 106.299C139.785 106.35 140.046 106.4 140.307 106.445C140.318 106.448 140.329 106.449 140.34 106.45C140.612 106.495 140.885 106.538 141.157 106.576C141.662 106.649 142.167 106.707 142.672 106.749C142.728 106.757 142.783 106.759 142.841 106.762C142.964 106.772 143.085 106.782 143.208 106.789C143.479 106.807 143.753 106.82 144.027 106.83C144.047 106.83 144.065 106.832 144.085 106.832C144.223 106.837 144.361 106.842 144.5 106.845C144.5 106.845 144.5 106.847 144.502 106.845C144.64 106.847 144.778 106.85 144.917 106.85H145.681C145.824 106.85 145.967 106.852 146.113 106.852C146.314 106.852 146.518 106.855 146.719 106.857C146.772 106.857 146.827 106.86 146.882 106.86C147.204 106.865 147.525 106.872 147.847 106.88C147.867 106.88 147.887 106.882 147.907 106.882C148.229 106.893 148.551 106.903 148.873 106.918C148.943 106.92 149.013 106.923 149.086 106.928C149.395 106.94 149.704 106.955 150.014 106.973C150.102 106.978 150.192 106.986 150.283 106.991C150.516 107.003 150.752 107.018 150.986 107.036C151.124 107.043 151.26 107.053 151.398 107.066C151.956 107.109 152.512 107.156 153.07 107.212C153.256 107.227 153.442 107.247 153.628 107.267C154.125 107.32 154.625 107.378 155.126 107.441C155.349 107.466 155.573 107.496 155.797 107.526C155.822 107.528 155.847 107.531 155.872 107.536C156.148 107.574 156.422 107.611 156.699 107.652C156.88 107.677 157.061 107.704 157.242 107.732C157.428 107.76 157.614 107.787 157.8 107.82C157.9 107.835 158.001 107.853 158.104 107.87C158.345 107.908 158.589 107.948 158.833 107.994C158.855 107.996 158.876 107.999 158.898 108.004C159.416 108.094 159.936 108.19 160.454 108.293C160.758 108.35 161.059 108.411 161.361 108.474C161.597 108.521 161.833 108.572 162.07 108.622C162.11 108.63 162.15 108.64 162.19 108.65C162.199 108.652 162.209 108.654 162.218 108.655C162.575 108.733 162.934 108.813 163.291 108.898C164.53 109.185 165.768 109.503 167.003 109.854C167.287 109.932 167.571 110.015 167.855 110.098C167.976 110.133 168.094 110.168 168.212 110.203C168.458 110.276 168.702 110.349 168.948 110.427C169.165 110.492 169.383 110.56 169.599 110.63C169.735 110.673 169.871 110.716 170.007 110.761C170.218 110.827 170.429 110.894 170.637 110.967C170.816 111.023 170.992 111.08 171.168 111.143C171.419 111.226 171.673 111.312 171.924 111.402C171.997 111.427 172.072 111.452 172.145 111.48C172.452 111.586 172.759 111.694 173.065 111.807C173.364 111.915 173.663 112.026 173.96 112.136C174.166 112.214 174.372 112.29 174.576 112.37C174.804 112.458 175.033 112.546 175.259 112.636C175.586 112.765 175.915 112.895 176.242 113.029C176.543 113.149 176.843 113.272 177.144 113.401C177.199 113.423 177.257 113.446 177.313 113.471C177.574 113.579 177.835 113.692 178.094 113.805C178.263 113.876 178.428 113.949 178.594 114.021C179.318 114.338 180.041 114.666 180.763 115.004H180.766C181.218 115.218 181.678 115.422 182.141 115.615C182.249 115.66 182.357 115.706 182.467 115.748C182.651 115.826 182.837 115.899 183.023 115.975C183.143 116.022 183.264 116.07 183.387 116.115C183.566 116.186 183.746 116.254 183.927 116.319C184.118 116.389 184.307 116.46 184.5 116.525C184.568 116.55 184.636 116.573 184.707 116.598C184.93 116.673 185.154 116.749 185.38 116.822C185.403 116.829 185.425 116.837 185.45 116.844C185.687 116.92 185.923 116.995 186.162 117.066C186.181 117.073 186.2 117.079 186.22 117.083C186.476 117.161 186.737 117.237 186.996 117.309C187.378 117.415 187.763 117.516 188.147 117.609C188.218 117.626 188.288 117.644 188.358 117.659C188.564 117.709 188.768 117.757 188.974 117.802C189.193 117.852 189.414 117.898 189.633 117.943C189.854 117.988 190.075 118.033 190.294 118.074C190.412 118.096 190.53 118.119 190.645 118.139L190.954 118.192C191.168 118.229 191.382 118.262 191.598 118.297C191.604 118.297 191.61 118.298 191.615 118.3C191.859 118.338 192.101 118.373 192.344 118.403C192.578 118.436 192.812 118.463 193.046 118.491C193.093 118.496 193.144 118.501 193.194 118.506C193.387 118.529 193.581 118.551 193.774 118.569C193.83 118.574 193.885 118.579 193.94 118.584C194.131 118.602 194.322 118.619 194.513 118.632C194.552 118.637 194.59 118.639 194.629 118.639C194.8 118.654 194.971 118.667 195.142 118.674C195.262 118.684 195.38 118.689 195.501 118.697C195.564 118.7 195.624 118.702 195.687 118.705C195.853 118.715 196.019 118.72 196.187 118.725C196.391 118.732 196.594 118.737 196.795 118.742C197.039 118.747 197.285 118.75 197.529 118.75H197.534C197.773 118.75 198.014 118.747 198.253 118.742H198.343L198.607 118.735C198.743 118.732 198.879 118.727 199.012 118.722C199.268 118.712 199.522 118.7 199.776 118.684C199.877 118.679 199.98 118.672 200.08 118.667C200.125 118.664 200.173 118.659 200.218 118.657C200.377 118.647 200.533 118.637 200.691 118.624C200.854 118.612 201.02 118.596 201.183 118.579C201.395 118.559 201.606 118.536 201.817 118.514C201.983 118.496 202.149 118.476 202.312 118.456C202.334 118.454 202.356 118.45 202.377 118.446C202.536 118.428 202.694 118.408 202.85 118.385C203.036 118.36 203.219 118.333 203.403 118.305C203.423 118.302 203.44 118.3 203.46 118.297C203.777 118.247 204.096 118.197 204.416 118.139C204.75 118.079 205.084 118.013 205.416 117.945C205.539 117.92 205.66 117.893 205.783 117.868C205.851 117.852 205.921 117.84 205.986 117.825C206.089 117.802 206.19 117.78 206.29 117.754C206.308 117.752 206.328 117.747 206.346 117.744C206.486 117.714 206.625 117.679 206.765 117.644C207.047 117.576 207.323 117.506 207.6 117.43C207.723 117.4 207.846 117.367 207.964 117.335C207.999 117.325 208.035 117.314 208.067 117.304C208.577 117.161 209.083 117.009 209.585 116.849C209.806 116.779 210.025 116.706 210.244 116.628C210.714 116.467 211.18 116.298 211.641 116.12C211.764 116.075 211.887 116.025 212.011 115.977C212.192 115.904 212.372 115.831 212.551 115.758C212.712 115.691 212.873 115.623 213.036 115.552C213.116 115.52 213.197 115.484 213.277 115.449C213.519 115.344 213.76 115.236 213.999 115.128C214.159 115.052 214.318 114.979 214.476 114.904C214.727 114.783 214.976 114.66 215.225 114.537C215.288 114.504 215.348 114.471 215.409 114.441C215.567 114.361 215.725 114.278 215.886 114.197C216.14 114.062 216.394 113.926 216.645 113.785C216.73 113.74 216.813 113.692 216.899 113.644C217.175 113.489 217.449 113.33 217.721 113.169C218.321 112.81 218.914 112.435 219.498 112.043C219.643 111.948 219.789 111.847 219.932 111.749C220.204 111.563 220.47 111.372 220.737 111.181C220.764 111.161 220.789 111.141 220.817 111.123C220.95 111.025 221.083 110.927 221.217 110.827C221.493 110.618 221.767 110.407 222.041 110.191C222.046 110.188 222.054 110.181 222.061 110.175C222.184 110.077 222.307 109.979 222.428 109.881C222.802 109.577 223.172 109.268 223.534 108.949C223.712 108.795 223.888 108.637 224.062 108.479C224.192 108.361 224.323 108.242 224.451 108.122C224.71 107.878 224.964 107.637 225.215 107.39C225.341 107.27 225.464 107.144 225.59 107.018C225.713 106.893 225.838 106.767 225.962 106.639C226.004 106.596 226.047 106.551 226.09 106.505C226.215 106.372 226.341 106.236 226.467 106.103C226.575 105.988 226.68 105.867 226.788 105.746C226.969 105.545 227.153 105.344 227.331 105.14C227.341 105.129 227.351 105.118 227.362 105.108C227.372 105.095 227.382 105.085 227.389 105.075H227.387C231.04 100.85 233.754 95.8969 235.35 90.5439C236.946 85.1909 237.387 79.5599 236.644 74.0236C235.901 68.4873 233.991 63.172 231.04 58.4293C228.09 53.6867 224.165 49.6249 219.528 46.5127L219.528 46.5127Z" fill="#FEBB1B"/>
<g opacity="0.15">
<path opacity="0.15" d="M168.658 16.8486C169.159 18.6486 169.913 20.3683 170.897 21.9565C169.25 20.5412 167.778 18.9336 166.513 17.168C167.223 17.0336 167.938 16.9272 168.658 16.8486Z" fill="black"/>
<path opacity="0.15" d="M144.134 44.685C142.273 45.7004 140.534 46.9232 138.949 48.33C141.626 45.1646 143.582 41.455 144.682 37.4582C144.695 37.4102 144.708 37.3619 144.721 37.3138L144.759 37.1778C146.081 32.4076 148.646 28.0742 152.191 24.6208L152.47 24.3491L152.667 24.6848C153.754 26.5334 155.054 28.2475 156.542 29.7919C154.263 36.2255 149.827 41.5801 144.134 44.685Z" fill="black"/>
<path opacity="0.15" d="M157.235 27.5626L157.198 27.6987C157.185 27.7468 157.171 27.7951 157.158 27.8431C157.084 28.1076 157.006 28.3702 156.926 28.6316C156.131 26.5719 155.573 24.4285 155.262 22.2426L155.232 22.0571L155.385 21.9481C157.297 20.5737 159.374 19.4443 161.568 18.5864C159.599 21.2953 158.131 24.3355 157.235 27.5626Z" fill="black"/>
<path opacity="0.15" d="M131.658 54.3C133.304 53.3988 134.845 52.317 136.251 51.0747C133.441 54.3472 131.427 58.2262 130.366 62.4076C129.305 66.5891 129.227 70.9594 130.137 75.1761C131.048 79.3929 132.922 83.3415 135.613 86.7126C138.305 90.0837 141.74 92.7856 145.65 94.6068L145.777 94.6655L145.904 94.6082C148.016 93.6539 150.242 92.9776 152.528 92.5962C151.101 93.3231 149.771 94.2262 148.569 95.2842L148.163 95.6359L148.673 95.8043C149.113 95.9499 149.554 96.0839 149.982 96.2028C152.497 96.9035 155.097 97.2515 157.708 97.2368C169.571 97.1608 181.526 99.9039 193.241 105.39C195.25 106.329 197.334 107.1 199.471 107.693C208.784 110.286 218.726 109.353 227.394 105.073C222.507 110.726 216.117 114.876 208.966 117.042C201.815 119.207 194.196 119.3 186.995 117.308C184.858 116.715 182.774 115.944 180.765 115.005C169.05 109.519 157.095 106.776 145.232 106.852C142.621 106.867 140.021 106.519 137.506 105.818C137.078 105.699 136.637 105.565 136.197 105.419L135.687 105.251L136.093 104.899C137.295 103.841 138.625 102.938 140.052 102.211C137.766 102.593 135.539 103.269 133.428 104.223L133.301 104.28L133.174 104.222C128.478 102.036 124.483 98.5881 121.632 94.263C118.782 89.938 117.19 84.9059 117.032 79.7282C116.875 74.5506 118.159 69.4311 120.742 64.941C123.325 60.4509 127.104 56.7668 131.658 54.3L131.658 54.3Z" fill="black"/>
</g>
</g>
<defs>
<clipPath id="clip0_929_19842">
<rect width="237" height="200" fill="white" transform="translate(0 0.25)"/>
</clipPath>
</defs>
</svg>
