<svg width="24" height="24" viewBox="0 0 24 24" fill="none" xmlns="http://www.w3.org/2000/svg">
<g id="Iconly/Broken/Location">
<g id="Location">
<path id="Location_2" fill-rule="evenodd" clip-rule="evenodd" d="M11.9999 2H12.0333C16.7197 2.01842 20.5183 5.84197 20.4999 10.5223V10.6153C20.4366 13.96 18.4258 16.7356 16.7504 18.4746C16.2736 18.9718 15.7661 19.4489 15.2427 19.8944C14.9292 20.1619 14.4586 20.1251 14.1908 19.812C13.923 19.498 13.9607 19.028 14.2742 18.7605C14.7589 18.3475 15.2304 17.9037 15.6739 17.4416C17.1649 15.8946 18.9527 13.4487 19.0071 10.5881C19.022 6.65842 15.8916 3.50574 12.0272 3.48996H11.9999C8.14862 3.48996 5.00768 6.61194 4.99276 10.4609C5.05861 12.3622 5.70138 14.1696 6.85256 15.6859C8.19604 17.4749 10.2341 19.3691 12.1712 20.6302C12.5171 20.8547 12.6146 21.316 12.3889 21.6615C12.2467 21.8807 12.007 22 11.7628 22C11.6232 22 11.4827 21.9614 11.3563 21.879C9.28224 20.5293 7.0993 18.5 5.66011 16.5839C4.32453 14.8238 3.57727 12.7235 3.5 10.5127C3.51844 5.78585 7.32848 2 11.9999 2ZM10.4928 9.23073C10.4928 10.1892 11.2743 10.9706 12.2349 10.9706C13.1955 10.9706 13.977 10.1892 13.977 9.23073C13.977 8.27133 13.1955 7.48996 12.2349 7.48996C11.8231 7.48996 11.4885 7.15671 11.4885 6.74542C11.4885 6.33325 11.8231 6 12.2349 6C14.0183 6 15.4698 7.44874 15.4698 9.23073C15.4698 11.0118 14.0183 12.4606 12.2349 12.4606C10.4515 12.4606 9 11.0118 9 9.23073C9 8.81856 9.33455 8.48531 9.74638 8.48531C10.1582 8.48531 10.4928 8.81856 10.4928 9.23073Z" fill="#212121"/>
</g>
</g>
</svg>
