<svg width="52" height="52" viewBox="0 0 52 52" fill="none" xmlns="http://www.w3.org/2000/svg">
<rect width="52" height="52" rx="26" fill="url(#paint0_linear_1969_16216)" fill-opacity="0.25"/>
<rect x="8" y="8" width="36" height="36" rx="18" fill="url(#paint1_linear_1969_16216)"/>
<path d="M26.0003 29.3332C27.8413 29.3332 29.3337 27.8408 29.3337 25.9998C29.3337 24.1589 27.8413 22.6665 26.0003 22.6665C24.1594 22.6665 22.667 24.1589 22.667 25.9998C22.667 27.8408 24.1594 29.3332 26.0003 29.3332Z" fill="#212121"/>
<path d="M26.8337 19.3907V17.6665H25.167V19.3907C23.7006 19.5779 22.3378 20.2466 21.2925 21.292C20.2471 22.3373 19.5784 23.7001 19.3912 25.1665H17.667V26.8332H19.3912C19.5781 28.2997 20.2468 29.6626 21.2922 30.708C22.3375 31.7534 23.7005 32.422 25.167 32.609V34.3332H26.8337V32.609C28.3002 32.4222 29.6632 31.7536 30.7087 30.7082C31.7541 29.6628 32.4227 28.2998 32.6095 26.8332H34.3337V25.1665H32.6095C32.4225 23.7 31.7539 22.3371 30.7085 21.2917C29.6631 20.2463 28.3002 19.5776 26.8337 19.3907ZM26.0003 30.9998C23.2428 30.9998 21.0003 28.7573 21.0003 25.9998C21.0003 23.2423 23.2428 20.9998 26.0003 20.9998C28.7578 20.9998 31.0003 23.2423 31.0003 25.9998C31.0003 28.7573 28.7578 30.9998 26.0003 30.9998Z" fill="#212121"/>
<defs>
<linearGradient id="paint0_linear_1969_16216" x1="52" y1="52" x2="-9.87533" y2="34.0598" gradientUnits="userSpaceOnUse">
<stop stop-color="#FEBB1B"/>
<stop offset="1" stop-color="#FFC740"/>
</linearGradient>
<linearGradient id="paint1_linear_1969_16216" x1="44" y1="44" x2="1.16323" y2="31.5799" gradientUnits="userSpaceOnUse">
<stop stop-color="#FEBB1B"/>
<stop offset="1" stop-color="#FFC740"/>
</linearGradient>
</defs>
</svg>
