<svg width="24" height="24" viewBox="0 0 24 24" fill="none" xmlns="http://www.w3.org/2000/svg">
<g id="Iconly/Broken/Logout">
<g id="Logout">
<path id="Logout_2" fill-rule="evenodd" clip-rule="evenodd" d="M3.50004 13.9489C3.50004 14.3527 3.16404 14.6804 2.75012 14.6804C2.3362 14.6804 2.00019 14.3527 2.00019 13.9489V6.71437C2.00019 4.39058 3.93831 2.5 6.32151 2.5H11.0675C13.4555 2.5 15.3985 4.39533 15.3985 6.72482V7.6093C15.3985 8.01212 15.0625 8.33988 14.6486 8.33988C14.2347 8.33988 13.8987 8.01212 13.8987 7.6093V6.72482C13.8987 5.20096 12.6287 3.96306 11.0675 3.96306H6.32151C4.76517 3.96306 3.50004 5.19811 3.50004 6.71437V13.9489ZM13.8985 16.3916C13.8985 15.9879 14.2345 15.6601 14.6484 15.6601C15.0623 15.6601 15.3983 15.9879 15.3983 16.3916V17.2856C15.3983 19.6094 13.4602 21.5 11.077 21.5H6.33008C3.94298 21.5 2 19.6047 2 17.2752C2 16.8714 2.336 16.5446 2.74992 16.5446C3.16384 16.5446 3.49985 16.8714 3.49985 17.2752C3.49985 18.799 4.76985 20.0369 6.33008 20.0369H11.077C12.6333 20.0369 13.8985 18.8028 13.8985 17.2856V16.3916ZM22.1451 11.4532C22.0292 11.1786 21.7555 11 21.4517 11H9.7509C9.33698 11 9 11.3287 9 11.7325C9 12.1362 9.33698 12.464 9.7509 12.464H19.6363L18.077 13.9784C17.7829 14.2634 17.7829 14.726 18.075 15.013C18.2211 15.1564 18.414 15.2286 18.6058 15.2286C18.7977 15.2286 18.9886 15.1564 19.1357 15.0149L21.9815 12.2512C22.1957 12.0422 22.261 11.7268 22.1451 11.4532ZM19.1218 10.6607C18.9309 10.6607 18.74 10.5895 18.594 10.4489L17.8762 9.7563C17.582 9.47223 17.5801 9.00862 17.8713 8.72265C18.1635 8.43384 18.6368 8.43194 18.9319 8.71695L19.6487 9.40858C19.9438 9.69359 19.9458 10.1563 19.6546 10.4432C19.5075 10.5876 19.3147 10.6607 19.1218 10.6607Z" fill="#212121"/>
</g>
</g>
</svg>
