<svg width="52" height="52" viewBox="0 0 52 52" fill="none" xmlns="http://www.w3.org/2000/svg">
<rect width="52" height="52" rx="26" fill="url(#paint0_linear_1969_16230)" fill-opacity="0.25"/>
<rect x="8" y="8" width="36" height="36" rx="18" fill="url(#paint1_linear_1969_16230)"/>
<path fill-rule="evenodd" clip-rule="evenodd" d="M18.917 24.598C18.917 20.7647 22.1202 17.6665 25.9949 17.6665C29.8804 17.6665 33.0837 20.7647 33.0837 24.598C33.0837 26.5296 32.3812 28.3229 31.2249 29.8428C29.9493 31.5194 28.3771 32.9802 26.6074 34.1269C26.2024 34.3919 25.8369 34.4119 25.3924 34.1269C23.6126 32.9802 22.0404 31.5194 20.7757 29.8428C19.6186 28.3229 18.917 26.5296 18.917 24.598ZM23.6622 24.8138C23.6622 26.0979 24.71 27.1079 25.9949 27.1079C27.2805 27.1079 28.3385 26.0979 28.3385 24.8138C28.3385 23.5397 27.2805 22.4805 25.9949 22.4805C24.71 22.4805 23.6622 23.5397 23.6622 24.8138Z" fill="#35383F"/>
<defs>
<linearGradient id="paint0_linear_1969_16230" x1="52" y1="52" x2="-9.87533" y2="34.0598" gradientUnits="userSpaceOnUse">
<stop stop-color="#FEBB1B"/>
<stop offset="1" stop-color="#FFC740"/>
</linearGradient>
<linearGradient id="paint1_linear_1969_16230" x1="44" y1="44" x2="1.16323" y2="31.5799" gradientUnits="userSpaceOnUse">
<stop stop-color="#FEBB1B"/>
<stop offset="1" stop-color="#FFC740"/>
</linearGradient>
</defs>
</svg>
