<svg width="20" height="18" viewBox="0 0 20 18" fill="none" xmlns="http://www.w3.org/2000/svg">
<path fill-rule="evenodd" clip-rule="evenodd" d="M20 7.30693C20 7.70064 19.6832 8.0198 19.2923 8.0198L19.2835 8.00198C19.0958 8.00198 18.9158 7.92687 18.7831 7.79319C18.6504 7.6595 18.5759 7.47817 18.5759 7.28911V5.84554C18.5519 3.41955 16.6055 1.45879 14.1973 1.43465H5.80274C3.39451 1.45879 1.44811 3.41955 1.42415 5.84554V12.1545C1.44811 14.5805 3.39451 16.5412 5.80274 16.5653H14.1973C16.6055 16.5412 18.5519 14.5805 18.5759 12.1545C18.6163 11.7891 18.923 11.5127 19.2879 11.5127C19.6529 11.5127 19.9595 11.7891 20 12.1545C19.9903 15.3788 17.398 17.9902 14.1973 18H5.80274C2.6 17.9951 0.00487111 15.3808 0 12.1545V5.84554C0 2.61714 2.59798 0 5.80274 0H14.1973C17.398 0.00978563 19.9903 2.6212 20 5.84554V7.30693ZM10.7386 8.85743L14.8518 5.54257H14.8607C15.167 5.29731 15.6119 5.34491 15.8602 5.6495C15.9785 5.798 16.0329 5.988 16.0113 6.17715C15.9897 6.36629 15.8939 6.53888 15.7452 6.65644L11.632 9.9802C10.5862 10.828 9.0954 10.828 8.04954 9.9802L3.92747 6.65644C3.6251 6.40629 3.57785 5.95805 3.82132 5.6495C3.93771 5.50163 4.10817 5.40703 4.29443 5.38693C4.4807 5.36682 4.66718 5.4229 4.81203 5.54257L8.96948 8.85743C9.48881 9.2679 10.2193 9.2679 10.7386 8.85743Z" fill="#212121"/>
</svg>
