<svg width="20" height="20" viewBox="0 0 20 20" fill="none" xmlns="http://www.w3.org/2000/svg">
<path fill-rule="evenodd" clip-rule="evenodd" d="M0 10C0 4.485 4.486 0 10 0C15.514 0 20 4.485 20 10C20 15.514 15.514 20 10 20C6.872 20 3.983 18.577 2.073 16.098C1.828 15.779 1.887 15.322 2.205 15.078C2.523 14.832 2.979 14.893 3.225 15.21C4.857 17.33 7.327 18.546 10 18.546C14.712 18.546 18.545 14.713 18.545 10C18.545 5.288 14.712 1.454 10 1.454C5.288 1.454 1.454 5.288 1.454 10C1.454 10.438 1.487 10.873 1.552 11.299C1.612 11.695 1.339 12.066 0.943 12.127C0.544 12.193 0.175 11.916 0.114 11.519C0.038 11.021 0 10.51 0 10ZM5.52044 8.80376C6.18144 8.80376 6.71844 9.34076 6.71844 9.99976C6.71844 10.6598 6.18144 11.1968 5.52044 11.1968C4.86044 11.1968 4.32244 10.6598 4.32244 9.99976C4.32244 9.34076 4.86044 8.80376 5.52044 8.80376ZM9.99994 8.80376C10.6599 8.80376 11.1979 9.34076 11.1979 9.99976C11.1979 10.6598 10.6599 11.1968 9.99994 11.1968C9.33894 11.1968 8.80194 10.6598 8.80194 9.99976C8.80194 9.34076 9.33894 8.80376 9.99994 8.80376ZM15.6769 9.99976C15.6769 9.34076 15.1399 8.80376 14.4789 8.80376C13.8189 8.80376 13.2809 9.34076 13.2809 9.99976C13.2809 10.6598 13.8189 11.1968 14.4789 11.1968C15.1399 11.1968 15.6769 10.6598 15.6769 9.99976Z" fill="#212121"/>
</svg>
