<svg width="24" height="24" viewBox="0 0 24 24" fill="none" xmlns="http://www.w3.org/2000/svg">
<g id="Iconly/Broken/Notification">
<g id="Notification">
<path id="Notification_2" fill-rule="evenodd" clip-rule="evenodd" d="M20.3257 11.3093C20.7317 11.9204 20.9646 12.6285 21 13.3594L20.9734 13.5442C21.004 14.5445 20.6701 15.5223 20.033 16.2983C19.2193 17.1763 18.1069 17.7247 16.91 17.8381C13.9617 18.1617 10.9863 18.1617 8.03799 17.8381C6.85854 17.717 5.76557 17.1687 4.96827 16.2983C4.32062 15.5334 3.97675 14.5603 4.00122 13.5618V13.4386C4.05 12.6858 4.30121 11.9596 4.72873 11.3357L4.7997 11.2477C5.24432 10.7473 5.55006 10.1409 5.6869 9.4879V8.73119V7.67532C5.81271 7.35744 6.1376 7.16252 6.47989 7.19956C6.82218 7.23659 7.09705 7.4964 7.15079 7.8337V8.71359V9.64628C7.15424 9.67845 7.15424 9.7109 7.15079 9.74307C6.96606 10.6508 6.54382 11.4944 5.92645 12.1892C5.6887 12.5648 5.55412 12.9955 5.53608 13.4386V13.6322C5.51638 14.2554 5.72433 14.8647 6.12163 15.348C6.67247 15.9123 7.40907 16.2619 8.19768 16.3335C11.052 16.6415 13.9315 16.6415 16.7858 16.3335C17.596 16.2597 18.3506 15.8934 18.9062 15.304C19.284 14.8322 19.4819 14.2433 19.4651 13.641V13.4386C19.4469 12.994 19.3157 12.5612 19.0836 12.1804C18.4406 11.4935 17.9935 10.6492 17.7883 9.73427C17.7849 9.7021 17.7849 9.66966 17.7883 9.63748V8.696V7.8161C17.531 5.15882 14.8606 3.51342 12.5361 3.51342C11.5479 3.51116 10.5759 3.76277 9.7148 4.24373C9.47637 4.38588 9.17884 4.38806 8.93831 4.24943C8.69779 4.1108 8.55241 3.85333 8.55891 3.5775C8.56541 3.30168 8.72276 3.05122 8.96955 2.92389C10.0365 2.32607 11.2397 2.00808 12.4651 2C15.5348 2 18.9772 4.16454 19.3675 7.64012V8.6784V9.45271C19.5008 10.1069 19.807 10.7142 20.2548 11.2125C20.2813 11.2426 20.305 11.275 20.3257 11.3093ZM12.2515 20.4308C12.7729 20.3531 13.2415 20.0723 13.5532 19.6507H13.5621C13.8316 19.3275 14.3142 19.2822 14.64 19.5495C14.9659 19.8168 15.0116 20.2954 14.7421 20.6186C14.0777 21.4802 13.0499 21.9899 11.9563 22C10.8658 21.9872 9.84176 21.4778 9.17931 20.6186C8.90982 20.2954 8.9555 19.8168 9.28134 19.5495C9.60718 19.2822 10.0898 19.3275 10.3593 19.6507C10.4776 19.8076 10.6181 19.9469 10.7763 20.0642C11.1991 20.3765 11.7302 20.5084 12.2515 20.4308Z" fill="#212121"/>
</g>
</g>
</svg>
