<svg width="20" height="20" viewBox="0 0 20 20" fill="none" xmlns="http://www.w3.org/2000/svg">
<path fill-rule="evenodd" clip-rule="evenodd" d="M-0.000244141 9.99976C-0.000244141 4.48476 4.48576 -0.000244141 9.99976 -0.000244141C15.5138 -0.000244141 19.9998 4.48476 19.9998 9.99976C19.9998 15.5138 15.5138 19.9998 9.99976 19.9998C6.87276 19.9998 3.98276 18.5768 2.07276 16.0978C1.82776 15.7788 1.88776 15.3218 2.20576 15.0778C2.52376 14.8318 2.97876 14.8928 3.22476 15.2098C4.85776 17.3298 7.32676 18.5458 9.99976 18.5458C14.7118 18.5458 18.5458 14.7128 18.5458 9.99976C18.5458 5.28776 14.7118 1.45376 9.99976 1.45376C5.28776 1.45376 1.45476 5.28776 1.45476 9.99976C1.45476 10.4378 1.48676 10.8728 1.55176 11.2988C1.61176 11.6948 1.33976 12.0658 0.942756 12.1268C0.543756 12.1928 0.174756 11.9158 0.114756 11.5188C0.0387559 11.0208 -0.000244141 10.5098 -0.000244141 9.99976ZM10 6.728C10 6.326 10.326 6 10.727 6C11.128 6 11.454 6.326 11.454 6.728V11.174L14.878 13.216C15.223 13.422 15.336 13.868 15.13 14.213C14.995 14.44 14.753 14.567 14.506 14.567C14.379 14.567 14.25 14.534 14.134 14.465L10.354 12.211C10.135 12.079 10 11.842 10 11.586V6.728Z" fill="#212121"/>
</svg>
