<svg width="20" height="20" viewBox="0 0 20 20" fill="none" xmlns="http://www.w3.org/2000/svg">
<path fill-rule="evenodd" clip-rule="evenodd" d="M5.78489 0.5H14.2142C17.4044 0.5 20 3.15478 20 6.41891V13.5811C20 16.8452 17.4044 19.5 14.2142 19.5C13.8462 19.5 13.5476 19.1944 13.5476 18.8179C13.5476 18.4414 13.8462 18.1358 14.2142 18.1358C16.6693 18.1358 18.6667 16.0931 18.6667 13.5811V7.86499H15.3831C14.3049 7.8659 13.4258 8.76447 13.4249 9.86858C13.4258 10.9727 14.3049 11.8713 15.3831 11.8722H16.7476C17.1156 11.8722 17.4142 12.1778 17.4142 12.5543C17.4142 12.9308 17.1156 13.2364 16.7476 13.2364H15.3831C13.5689 13.2355 12.0924 11.7248 12.0916 9.86858C12.0924 8.01233 13.5689 6.50168 15.3831 6.50077H18.6667V6.41891C18.6667 3.90692 16.6693 1.86422 14.2142 1.86422H5.78489C3.80622 1.86422 2.14578 3.19934 1.56711 5.02831H10.3547C10.7227 5.02831 11.0213 5.3339 11.0213 5.71043C11.0213 6.08786 10.7227 6.39254 10.3547 6.39254H1.336C1.336 6.39709 1.33533 6.40141 1.33467 6.40573C1.334 6.41004 1.33333 6.41436 1.33333 6.41891V13.5811C1.33333 16.0931 3.32978 18.1358 5.78489 18.1358H10.0258C10.3938 18.1358 10.6924 18.4414 10.6924 18.8179C10.6924 19.1944 10.3938 19.5 10.0258 19.5H5.78489C2.59467 19.5 0 16.8452 0 13.5811V6.41891C0 3.15478 2.59467 0.5 5.78489 0.5ZM14.861 9.8071C14.861 9.43057 15.1596 9.12499 15.5276 9.12499H15.8308C16.1988 9.12499 16.4974 9.43057 16.4974 9.8071C16.4974 10.1836 16.1988 10.4892 15.8308 10.4892H15.5276C15.1596 10.4892 14.861 10.1836 14.861 9.8071Z" fill="#212121"/>
</svg>
